# xmcd
#
# Track frame offsets: 
#        150
#        12450
#        29352
#        42560
#        58585
#        71942
#        88615
#        104925
#        125635
#        144047
#        159045
#        183757
#
# Disc length: 2653 seconds
#
# Revision: 0
# Processed by: cddbd v1.4PL0 Copyright (c) Steve Scherf et al.
# Submitted via: ExactAudioCopy v0.90a11
#
DISCID=a50a5b0c
DTITLE=Tyler England - Highways and Dance Halls
DYEAR=1900
DGENRE=
TTITLE0=My Baby No Esta Aqui No More
TTITLE1=She's Gonna Miss Me When He's Gone
TTITLE2=She Don't Care About Me
TTITLE3=I Drove Her To Dallas
TTITLE4=Blame It On Mexico
TTITLE5=Forever
TTITLE6=Too Many Highways
TTITLE7=Collect From Wichita
TTITLE8=I'd Rather Have Nothing
TTITLE9=I Knew I Loved You
TTITLE10=Travelin' Soldier
TTITLE11=Should've Asked Her Faster (Duet With Steve Wariner)
EXTD=
EXTT0=
EXTT1=
EXTT2=
EXTT3=
EXTT4=
EXTT5=
EXTT6=
EXTT7=
EXTT8=
EXTT9=
EXTT10=
EXTT11=
PLAYORDER=
